<svg width="126" height="31" fill="none" xmlns="http://www.w3.org/2000/svg">
  <path d="M18.336 18l4.25-14.375L27.118 18h2.187L34.461.812h-2.03L28.21 15.25 23.743.812h-2.094L17.305 15.25 12.993.812h-2.25L16.149 18h2.187zM44.191.625c1.687 0 3.125.375 4.312 1.125a7.505 7.505 0 012.813 3c.667 1.458 1 3.01 1 4.656 0 1.688-.333 3.23-1 4.625a7.673 7.673 0 01-2.813 3.063c-1.187.75-2.625 1.125-4.312 1.125-1.688 0-3.125-.375-4.313-1.125-1.166-.75-2.083-1.771-2.75-3.063-.666-1.208-1-2.75-1-4.625 0-1.833.334-3.385 1-4.656.667-1.27 1.584-2.27 2.75-3C41.066 1 42.503.625 44.191.625zm0 15.781c1.312 0 2.364-.302 3.156-.906.813-.625 1.459-1.469 1.938-2.531.5-1.042.75-2.23.75-3.563 0-1.312-.25-2.5-.75-3.562-1.063-2.271-2.76-3.407-5.094-3.407-1.292 0-2.333.313-3.125.938-.792.604-1.438 1.427-1.938 2.469-.479.958-.718 2.146-.718 3.562 0 1.438.24 2.625.718 3.563.5 1.062 1.146 1.906 1.938 2.531.792.604 1.833.906 3.125.906zM61.574 18l4.25-14.375L70.355 18h2.188L77.699.812h-2.031l-4.22 14.438L66.98.812h-2.094L60.543 15.25 56.23.812h-2.25L59.386 18h2.188zM93.49 2.062c-.854-.5-1.74-.874-2.656-1.124-.896-.25-1.896-.375-3-.375-1.605 0-3.042.385-4.313 1.156-1.25.729-2.26 1.77-3.031 3.125-.75 1.354-1.125 2.916-1.125 4.687 0 1.584.364 3.052 1.094 4.406a8.072 8.072 0 002.937 3.157c1.27.77 2.688 1.156 4.25 1.156 1.542 0 2.927-.281 4.156-.844.959-.416 1.76-.948 2.407-1.593V8.905h-6.844v1.688h4.937v4.562c-.479.396-1.083.709-1.812.938a6.774 6.774 0 01-2.094.343c-.667 0-1.27-.072-1.813-.218a9.176 9.176 0 01-1.718-.75c-.98-.563-1.76-1.365-2.344-2.406-.583-1.063-.875-2.292-.875-3.688 0-1.292.24-2.448.719-3.469.479-1.02 1.229-1.864 2.25-2.531a6.196 6.196 0 013.406-1c.73 0 1.52.115 2.375.344.875.229 1.635.51 2.281.844l.813-1.5zM105.03.625c1.687 0 3.125.375 4.312 1.125a7.505 7.505 0 012.813 3c.666 1.458 1 3.01 1 4.656 0 1.688-.334 3.23-1 4.625a7.673 7.673 0 01-2.813 3.063c-1.187.75-2.625 1.125-4.312 1.125-1.688 0-3.125-.375-4.313-1.125-1.166-.75-2.083-1.771-2.75-3.063-.666-1.208-1-2.75-1-4.625 0-1.833.334-3.385 1-4.656.667-1.27 1.584-2.27 2.75-3 1.188-.75 2.625-1.125 4.313-1.125zm0 15.781c1.312 0 2.364-.302 3.156-.906.813-.625 1.458-1.469 1.938-2.531.5-1.042.75-2.23.75-3.563 0-1.312-.25-2.5-.75-3.562-1.063-2.271-2.761-3.407-5.094-3.407-1.292 0-2.334.313-3.125.938-.792.604-1.438 1.427-1.938 2.469-.479.958-.719 2.146-.719 3.562 0 1.438.24 2.625.72 3.563.499 1.062 1.145 1.906 1.937 2.531.791.604 1.833.906 3.125.906zM9 24h116v1H9zM0 27h115v1H0zM10 30h116v1H10z" fill="#fff"/>
</svg>