<svg width="28" height="29" viewBox="0 0 28 29" fill="none" xmlns="http://www.w3.org/2000/svg">
  <path d="M5 8.20081H7M7 8.20081H23M7 8.20081V22.2008C7 22.7312 7.21071 23.2399 7.58579 23.615C7.96086 23.9901 8.46957 24.2008 9 24.2008H19C19.5304 24.2008 20.0391 23.9901 20.4142 23.615C20.7893 23.2399 21 22.7312 21 22.2008V8.20081H7ZM10 8.20081V6.20081C10 5.67037 10.2107 5.16166 10.5858 4.78659C10.9609 4.41152 11.4696 4.20081 12 4.20081H16C16.5304 4.20081 17.0391 4.41152 17.4142 4.78659C17.7893 5.16166 18 5.67037 18 6.20081V8.20081M12 13.2008V19.2008M16 13.2008V19.2008" stroke="#fff" stroke-linecap="round" stroke-linejoin="round"/>
</svg>
