<svg width="183" height="303" fill="none" xmlns="http://www.w3.org/2000/svg">
  <path d="M28.464 296.087a6 6 0 015.249-7.271L81 284v13a6 6 0 01-6 6H34.813a6 6 0 01-5.857-4.698l-.492-2.215zM141.571 296.054a6 6 0 00-5.243-7.246L90 284v13a6 6 0 006 6h39.223a6 6 0 005.862-4.721l.486-2.225z" fill="#872327"/>
  <path d="M4.816 171.014c11.056-18.068 14.927-29.381 30.589-35.159l3.67 36.136-7.83 1.953c-8.81 3.175-19.288 20.999 7.83 35.893l-5.383 17.579-16.396-9.278c-14.393-9.278-21.29-30.52-12.48-47.124zM164.568 168.534c-9.21-19.914-16.763-29.758-33.899-35.534v32.37l11.057 9.112c10.538 8.412 3.695 19.865-14.726 35.875L139.852 225l6.888-7.545c7.664-11.907 27.039-29.006 17.828-48.921z" fill="#EBBAAA"/>
  <path fill-rule="evenodd" clip-rule="evenodd" d="M131.265 236.328a9 9 0 00-9-9H48.254a9 9 0 00-9 9v44.018a9 9 0 009 9h25.36a9 9 0 008.922-7.826l.985-7.486c.305-2.319 3.66-2.319 3.966 0l.985 7.486a9 9 0 008.923 7.826h24.87a9 9 0 009-9v-44.018z" fill="#333"/>
  <rect x="63.989" y="93.067" width="40.566" height="97.734" rx="11" fill="#EBBAAA"/>
  <path d="M113.448 98.265c-12.709 21.963-44.417 21.963-57.126 0L27.449 48.367c-3.858-6.667.953-15.009 8.655-15.009h97.561c7.703 0 12.513 8.342 8.656 15.009l-28.873 49.898z" fill="#EED4CC"/>
  <rect width="29.85" height="7.326" rx="3.663" transform="rotate(14.968 -52.095 370.714) skewX(-.064)" fill="#212226"/>
  <rect width="29.85" height="7.326" rx="3.663" transform="rotate(-14.968 151.759 -160.724) skewX(.064)" fill="#212226"/>
  <rect width="15.171" height="33.697" rx="7.585" transform="rotate(11.084 -165.784 699.047) skewX(-.048)" fill="#EED4CC"/>
  <rect width="15.169" height="33.702" rx="7.584" transform="rotate(-17.563 169.95 -46.14) skewX(.074)" fill="#EED4CC"/>
  <path d="M60.855 100.015c0-3.506 10.736-7.08 23.981-7.08 13.245 0 23.982 3.574 23.982 7.08 0 3.506-10.737-2.93-23.982-2.93s-23.981 6.436-23.981 2.93z" fill="#C99584"/>
  <path d="M19.254 36.288h132.143l-6.624 11.857a34.999 34.999 0 01-30.555 17.931h-58.06a35 35 0 01-30.864-18.494l-6.04-11.294z" fill="#212226"/>
  <rect x="63.791" y="41.66" width="13.704" height="15.138" rx="6.852" fill="#F2F2F2"/>
  <rect x="92.177" y="41.66" width="13.704" height="15.138" rx="6.852" fill="#F2F2F2"/>
  <path d="M13.767 30.493C7.995 21.063 15.28 9.05 26.31 9.806l60.317 4.139 56.596-3.757c12.019-.797 18.922 13.417 10.864 22.37A13.423 13.423 0 01144.112 37H25.378c-4.739 0-9.137-2.465-11.61-6.507z" fill="#333"/>
  <path d="M88.237 82.415c-1.417 3.14-5.875 3.14-7.292 0l-2.07-4.589c-1.196-2.647.74-5.645 3.645-5.645h4.142c2.905 0 4.841 2.998 3.646 5.645l-2.07 4.589z" fill="#DFA592"/>
  <ellipse cx="87.5" cy="11" rx="15.5" ry="11" fill="#872327"/>
  <path d="M29.369 150.207c-1.028-10.229 6.85-19.288 17.132-19.288h16.147c2.367 0 4.738.507 6.903 1.464 10.128 4.477 21.801 4.619 31.989.28l.904-.385a17.004 17.004 0 016.662-1.359h14.62c10.11 0 17.947 8.773 17.112 18.849-2.041 24.623-2.05 43.638-.007 68.26.837 10.079-7.001 18.858-17.114 18.858H46.443c-10.26 0-18.135-9.025-17.114-19.235 2.43-24.293 2.48-43.158.04-67.444z" fill="#509AF7"/>
  <path d="M29.832 212.52s109.391-.494 110.114 0c.723.494 2.207 9.872-.761 14.315l-108.341.238c-2.212-4.348-2.111-7.802-1.012-14.553zM31.109 189.03H139.34l.555 14.161-109.385-.488.598-13.673zM30.51 165.102h109.386l-.49 14.161H31l-.49-14.161zM30.5 142h109.312c1.688 4 1.309 7.02.573 13.335H29.777S28.53 150.235 29 147c.293-2.017 1.5-5 1.5-5z" fill="#F2F2F2"/>
  <path fill-rule="evenodd" clip-rule="evenodd" d="M170.513 245.293a4 4 0 00-4 4v6.484a3.398 3.398 0 01-3.398 3.398 3.398 3.398 0 00-3.398 3.398v29.018a4 4 0 004 4h15.003a4 4 0 004-4v-29.018a3.398 3.398 0 00-3.399-3.398 3.398 3.398 0 01-3.398-3.398v-6.484a4 4 0 00-4-4h-1.41z" fill="#1F4929"/>
  <path d="M166.569 247.293a2 2 0 012-2h5.299a2 2 0 012 2v3.372h-9.299v-3.372z" fill="#9E353A"/>
  <path fill="#509AF7" d="M159.717 266.292h23.003v14.65h-23.003z"/>
</svg>